<?xml version="1.0" encoding="UTF-8"?><svg xmlns="http://www.w3.org/2000/svg" viewBox="0 0 39.7 7.13"><defs><style>.d{fill:#ebebdf;}.e{fill:#fe5cdc;}.f{fill:#ffb500;}.g{fill:#52c4cc;}</style></defs><g id="a"/><g id="b"><g id="c"><g><path class="d" d="M9.5,.06h6.33c.81,0,1.25,.07,1.62,.25,.57,.29,.8,.77,.8,1.66s-.32,1.39-.98,1.51c.95,.18,1.26,.59,1.26,1.61,0,.88-.25,1.44-.81,1.73-.33,.17-.79,.24-1.6,.24h-6.62V.06Zm5.67,2.8c.41,0,.56-.02,.69-.08,.17-.09,.27-.28,.27-.53,0-.28-.14-.49-.37-.58-.14-.04-.24-.05-.65-.05h-3.53v1.24h3.59Zm.23,2.66c.43,0,.51-.01,.65-.05,.21-.07,.34-.28,.34-.58s-.13-.52-.36-.6c-.13-.04-.21-.05-.68-.05h-3.76v1.28h3.82Z"/><path class="d" d="M23.34,.06h2.86l3.84,7.01h-2.33l-.69-1.25h-4.52l-.67,1.25h-2.42L23.34,.06Zm2.92,4.3l-1.51-2.8-1.49,2.8h3.01Z"/><path class="d" d="M33.07,4.84c.02,.48,.07,.6,.33,.69,.16,.06,.76,.11,1.43,.11,2.47,0,2.77-.07,2.77-.65,0-.28-.14-.49-.36-.57q-.23-.07-1.34-.08h-1.93c-1.29,0-1.83-.07-2.28-.3-.5-.26-.74-.82-.74-1.78,0-1.26,.36-1.8,1.37-2.04,.57-.15,1.39-.2,2.92-.2,2.46,0,3.03,.06,3.53,.39,.48,.33,.64,.76,.64,1.81h-2.08c0-.61-.21-.69-1.59-.69-.68,0-1.6,.02-1.93,.04-.57,.04-.76,.19-.76,.59,0,.29,.15,.48,.45,.56,.13,.03,.17,.04,.86,.05h1.99c.19,0,1.14,.03,1.49,.05,1.34,.06,1.86,.65,1.86,2.06,0,1.29-.38,1.86-1.41,2.08-.53,.12-1.57,.18-3.09,.18-2.43,0-2.97-.05-3.59-.37-.43-.21-.65-.75-.65-1.58,0-.06,0-.2,.01-.35h2.09Z"/></g><rect class="e" y="5.08" width="8.19" height="2"/><rect class="f" width="8.19" height="2"/><rect class="g" y="2.54" width="8.19" height="2"/></g></g></svg>